<svg xmlns="http://www.w3.org/2000/svg" viewBox="0 0 64 64" fill="none">
  <defs>
    <linearGradient id="bg" x1="8" y1="6" x2="56" y2="58" gradientUnits="userSpaceOnUse">
      <stop stop-color="#E2BF79" />
      <stop offset="1" stop-color="#936926" />
    </linearGradient>
  </defs>
  <rect x="6" y="6" width="52" height="52" rx="14" fill="url(#bg)" />
  <path
    d="M40.81 21.07c-2.44-1.94-5.31-2.91-8.6-2.91-3.86 0-7.04 1.27-9.53 3.81-2.5 2.52-3.75 5.76-3.75 9.72 0 3.98 1.23 7.22 3.69 9.72 2.46 2.48 5.64 3.72 9.53 3.72 3.36 0 6.28-.97 8.75-2.91v-5.31c-2.28 2.68-5.08 4.03-8.41 4.03-2.52 0-4.59-.84-6.22-2.53-1.61-1.68-2.41-3.95-2.41-6.81 0-2.82.82-5.08 2.47-6.78 1.67-1.71 3.77-2.56 6.31-2.56 3.21 0 5.94 1.35 8.17 4.06v-5.25Z"
    fill="#201406"
  />
</svg>
